<svg width="12" height="12" viewBox="0 0 12 12" fill="none" xmlns="http://www.w3.org/2000/svg">
<path d="M11.4866 5.7524L6.23656 0.502396C6.02656 0.292396 5.7349 0.164062 5.41406 0.164062H1.33073C0.689062 0.164062 0.164062 0.689062 0.164062 1.33073V5.41406C0.164062 5.7349 0.292396 6.02656 0.508229 6.2424L5.75823 11.4924C5.96823 11.7024 6.2599 11.8307 6.58073 11.8307C6.90156 11.8307 7.19323 11.7024 7.40323 11.4866L11.4866 7.40323C11.7024 7.19323 11.8307 6.90156 11.8307 6.58073C11.8307 6.2599 11.6966 5.9624 11.4866 5.7524ZM2.20573 3.08073C1.72156 3.08073 1.33073 2.6899 1.33073 2.20573C1.33073 1.72156 1.72156 1.33073 2.20573 1.33073C2.6899 1.33073 3.08073 1.72156 3.08073 2.20573C3.08073 2.6899 2.6899 3.08073 2.20573 3.08073Z" fill="#457EFF"/>
</svg>
