<svg width="18" height="19" viewBox="0 0 18 19" fill="none" xmlns="http://www.w3.org/2000/svg">
<g filter="url(#filter0_d_2465_15980)">
<path d="M12.3722 17.1562C12.1347 17.1562 11.9367 17.0738 11.7784 16.9088C11.62 16.7438 11.5408 16.5492 11.5408 16.3248V14.6818C11.5408 14.3519 11.4781 14.0351 11.3528 13.7316C11.2274 13.4281 11.0492 13.1608 10.8183 12.9299C10.5873 12.6989 10.3201 12.5208 10.0166 12.3954C9.71302 12.27 9.39629 12.2074 9.06637 12.2074H4.11748C3.78755 12.2074 3.47082 12.27 3.16729 12.3954C2.86376 12.5208 2.59652 12.6989 2.36557 12.9299C2.13462 13.1608 1.95646 13.4281 1.83109 13.7316C1.70572 14.0351 1.64303 14.3519 1.64303 14.6818V16.3248C1.64303 16.5492 1.56385 16.7438 1.40549 16.9088C1.24712 17.0738 1.05246 17.1562 0.821516 17.1562C0.590568 17.1562 0.395911 17.0738 0.237547 16.9088C0.0791823 16.7438 0 16.5492 0 16.3248V14.6818C0 13.9296 0.184759 13.2367 0.554276 12.6033C0.923793 11.9698 1.42198 11.4683 2.04884 11.0988C2.6757 10.7293 3.36525 10.5445 4.11748 10.5445H9.06637C9.8186 10.5445 10.5081 10.7293 11.135 11.0988C11.7619 11.4683 12.2601 11.9698 12.6296 12.6033C12.9991 13.2367 13.1838 13.9296 13.1838 14.6818V16.3248C13.1838 16.5492 13.1047 16.7438 12.9463 16.9088C12.7879 17.0738 12.5966 17.1562 12.3722 17.1562ZM10.7094 4.78402C10.7094 3.93941 10.4785 3.17069 10.0166 2.47784C9.55466 1.785 8.9377 1.28021 8.16567 0.96348C7.39364 0.646751 6.59852 0.570869 5.7803 0.735832C4.96209 0.900795 4.25935 1.27691 3.67208 1.86418C3.08481 2.45145 2.70869 3.15419 2.54373 3.97241C2.37877 4.79062 2.45795 5.58574 2.78128 6.35777C3.1046 7.1298 3.61269 7.74676 4.30553 8.20866C4.99838 8.67055 5.76051 8.9015 6.59192 8.9015C7.34415 8.9015 8.0337 8.71674 8.66056 8.34723C9.28742 7.97771 9.78561 7.47622 10.1551 6.84276C10.5246 6.2093 10.7094 5.52306 10.7094 4.78402ZM9.06637 4.78402C9.06637 5.23272 8.95419 5.64513 8.72984 6.02125C8.50549 6.39736 8.20526 6.6976 7.82915 6.92194C7.45303 7.14629 7.04062 7.25847 6.59192 7.25847C6.14322 7.25847 5.73082 7.14629 5.3547 6.92194C4.97858 6.6976 4.67835 6.39736 4.454 6.02125C4.22965 5.64513 4.11748 5.23272 4.11748 4.78402C4.11748 4.33533 4.22965 3.91962 4.454 3.5369C4.67835 3.15419 4.97858 2.85396 5.3547 2.63621C5.73082 2.41846 6.14322 2.30958 6.59192 2.30958C7.04062 2.30958 7.45303 2.41846 7.82915 2.63621C8.20526 2.85396 8.50549 3.15419 8.72984 3.5369C8.95419 3.91962 9.06637 4.33533 9.06637 4.78402Z" fill="#066DBF"/>
</g>
<defs>
<filter id="filter0_d_2465_15980" x="-4" y="0.648438" width="21.1875" height="24.5078" filterUnits="userSpaceOnUse" color-interpolation-filters="sRGB">
<feFlood flood-opacity="0" result="BackgroundImageFix"/>
<feColorMatrix in="SourceAlpha" type="matrix" values="0 0 0 0 0 0 0 0 0 0 0 0 0 0 0 0 0 0 127 0" result="hardAlpha"/>
<feOffset dy="4"/>
<feGaussianBlur stdDeviation="2"/>
<feComposite in2="hardAlpha" operator="out"/>
<feColorMatrix type="matrix" values="0 0 0 0 0 0 0 0 0 0 0 0 0 0 0 0 0 0 0.25 0"/>
<feBlend mode="normal" in2="BackgroundImageFix" result="effect1_dropShadow_2465_15980"/>
<feBlend mode="normal" in="SourceGraphic" in2="effect1_dropShadow_2465_15980" result="shape"/>
</filter>
</defs>
</svg>
